<svg xmlns="http://www.w3.org/2000/svg" viewBox="0 0 64 64" width="64" height="64">
  <!-- Background -->
  <rect width="64" height="64" fill="#1a1a2e" rx="8"/>
  
  <!-- Grid pattern -->
  <defs>
    <pattern id="grid" width="8" height="8" patternUnits="userSpaceOnUse">
      <path d="M 8 0 L 0 0 0 8" fill="none" stroke="#4a5568" stroke-width="0.5" opacity="0.6"/>
    </pattern>
  </defs>
  <rect width="64" height="64" fill="url(#grid)"/>
  
  <!-- Letter A with grid accent -->
  <g transform="translate(12, 8)">
    <!-- A shape - larger -->
    <path d="M 20 0 L 32 48 L 26 48 L 24 32 L 16 32 L 14 48 L 8 48 L 20 0 Z" fill="#60a5fa" stroke="#3b82f6" stroke-width="0.5"/>
    <path d="M 19 10 L 22 26 L 18 26 Z" fill="#1a1a2e"/>
    <rect x="17" y="26" width="6" height="3" fill="#1a1a2e"/>
    
    <!-- Grid accent dots on A -->
    <circle cx="20" cy="5" r="1.2" fill="#93c5fd" opacity="0.8"/>
    <circle cx="23" cy="16" r="1" fill="#93c5fd" opacity="0.8"/>
    <circle cx="17" cy="16" r="1" fill="#93c5fd" opacity="0.8"/>
  </g>
  
  <!-- Small grid squares in corners for decoration -->
  <rect x="4" y="4" width="3" height="3" fill="#60a5fa" opacity="0.3"/>
  <rect x="57" y="4" width="3" height="3" fill="#60a5fa" opacity="0.3"/>
  <rect x="4" y="57" width="3" height="3" fill="#60a5fa" opacity="0.3"/>
  <rect x="57" y="57" width="3" height="3" fill="#60a5fa" opacity="0.3"/>
</svg>

